<svg width="197" height="393" viewBox="0 0 197 393" fill="none" xmlns="http://www.w3.org/2000/svg">
<path d="M1.17123e-05 393C25.8048 393 51.3568 387.917 75.1973 378.042C99.0378 368.167 120.7 353.693 138.946 335.446C157.193 317.2 171.667 295.538 181.542 271.697C191.417 247.857 196.5 222.305 196.5 196.5C196.5 170.695 191.417 145.143 181.542 121.303C171.667 97.4622 157.193 75.8002 138.946 57.5535C120.7 39.3068 99.0377 24.8327 75.1973 14.9577C51.3568 5.08262 25.8047 7.8297e-06 -3.79036e-05 1.00856e-05L-5.46626e-06 196.5L1.17123e-05 393Z" fill="url(#paint0_linear_375_16)"/>
<defs>
<linearGradient id="paint0_linear_375_16" x1="131.5" y1="339.5" x2="-7.27255e-06" y2="-1.77884e-06" gradientUnits="userSpaceOnUse">
<stop stop-color="#5CC4FF" stop-opacity="0.46"/>
<stop offset="1" stop-color="#D9D9D9" stop-opacity="0"/>
</linearGradient>
</defs>
</svg>